<svg preserveAspectRatio="none" width="100%" height="100%" overflow="visible" style="display: block;" viewBox="0 0 16.1299 14.7279" fill="none" xmlns="http://www.w3.org/2000/svg">
<path id="Arrow 26" d="M1 6.36396C0.447715 6.36396 0 6.81168 0 7.36396C0 7.91625 0.447715 8.36396 1 8.36396V7.36396V6.36396ZM15.837 8.07107C16.2276 7.68054 16.2276 7.04738 15.837 6.65685L9.47307 0.292893C9.08255 -0.097631 8.44938 -0.097631 8.05886 0.292893C7.66833 0.683418 7.66833 1.31658 8.05886 1.70711L13.7157 7.36396L8.05886 13.0208C7.66833 13.4113 7.66833 14.0445 8.05886 14.435C8.44938 14.8256 9.08255 14.8256 9.47307 14.435L15.837 8.07107ZM1 7.36396V8.36396H15.1299V7.36396V6.36396H1V7.36396Z" fill="var(--stroke-0, #2254D4)"/>
</svg>
