<svg preserveAspectRatio="none" width="100%" height="100%" overflow="visible" style="display: block;" viewBox="0 0 18.1245 14.7279" fill="none" xmlns="http://www.w3.org/2000/svg">
<path id="Arrow 28" d="M1 6.36396C0.447715 6.36396 0 6.81168 0 7.36396C0 7.91625 0.447715 8.36396 1 8.36396V7.36396V6.36396ZM17.8316 8.07107C18.2221 7.68054 18.2221 7.04738 17.8316 6.65685L11.4677 0.292893C11.0771 -0.097631 10.444 -0.097631 10.0534 0.292893C9.66292 0.683418 9.66292 1.31658 10.0534 1.70711L15.7103 7.36396L10.0534 13.0208C9.66292 13.4113 9.66292 14.0445 10.0534 14.435C10.444 14.8256 11.0771 14.8256 11.4677 14.435L17.8316 8.07107ZM1 7.36396V8.36396H17.1245V7.36396V6.36396H1V7.36396Z" fill="var(--stroke-0, #2254D4)"/>
</svg>
