<svg preserveAspectRatio="none" width="100%" height="100%" overflow="visible" style="display: block;" viewBox="0 0 26.1928 10.8398" fill="none" xmlns="http://www.w3.org/2000/svg">
<path id="Arrow 29" d="M0.267211 9.15913C-0.108592 9.56384 -0.0851575 10.1966 0.319553 10.5724C0.724264 10.9482 1.357 10.9247 1.7328 10.52L1 9.83958L0.267211 9.15913ZM23.3119 10.8217C23.8544 10.9256 24.3783 10.5701 24.4822 10.0277L26.1748 1.18826C26.2787 0.645827 25.9232 0.121898 25.3807 0.0180287C24.8383 -0.0858407 24.3144 0.269683 24.2105 0.812112L22.7059 8.66935L14.8487 7.16478C14.3063 7.06091 13.7823 7.41643 13.6785 7.95886C13.5746 8.50129 13.9301 9.02522 14.4725 9.12909L23.3119 10.8217ZM1 9.83958L1.7328 10.52C4.88633 7.12392 7.75412 5.50416 10.2346 4.90541C12.7064 4.30879 14.8888 4.70274 16.7242 5.50574C18.573 6.31459 20.0659 7.53844 21.1054 8.57794C21.6224 9.09498 22.0201 9.5592 22.2864 9.8911C22.4193 10.0568 22.519 10.189 22.584 10.2775C22.6165 10.3217 22.6402 10.355 22.655 10.376C22.6624 10.3865 22.6676 10.394 22.6705 10.3982C22.672 10.4003 22.6729 10.4016 22.6732 10.4021C22.6734 10.4024 22.6734 10.4024 22.6733 10.4022C22.6733 10.4021 22.6731 10.4019 22.673 10.4018C22.6728 10.4015 22.6725 10.4011 23.5 9.83958C24.3275 9.27808 24.3271 9.27758 24.3268 9.27703C24.3266 9.27677 24.3262 9.27617 24.3258 9.27566C24.3251 9.27463 24.3243 9.2734 24.3233 9.27195C24.3213 9.26906 24.3188 9.26533 24.3156 9.26077C24.3093 9.25165 24.3007 9.23924 24.2897 9.22369C24.2678 9.1926 24.2366 9.14896 24.1963 9.09406C24.1157 8.98431 23.9986 8.82935 23.8464 8.63962C23.5424 8.26058 23.0963 7.74043 22.5196 7.16372C21.3716 6.01572 19.677 4.61457 17.5258 3.67342C15.3612 2.72642 12.7311 2.24537 9.76536 2.96125C6.80839 3.675 3.61368 5.55524 0.267211 9.15913L1 9.83958Z" fill="var(--stroke-0, #2254D4)"/>
</svg>
