<svg width="37" height="37" viewBox="0 0 37 37" fill="none" xmlns="http://www.w3.org/2000/svg">
<rect x="2.72936" y="5.24108" width="31.8305" height="30.239" rx="15.1195" stroke="#202831" stroke-width="1.59153"/>
<mask id="path-2-inside-1_5081_211" fill="white">
<path d="M16.6351 14.5717C16.636 14.2527 16.8952 13.9998 17.2142 14.0068V14.0068C17.5331 14.0138 17.7908 14.278 17.7899 14.597L17.7687 22.0531L16.6138 22.0278L16.6351 14.5717Z"/>
</mask>
<path d="M17.7687 22.0531L17.7641 23.6446L19.3553 23.6795L19.3598 22.088L17.7687 22.0531ZM16.6138 22.0278L15.0227 21.9929L15.0181 23.5845L16.6093 23.6193L16.6138 22.0278ZM17.2142 14.0068M17.7899 14.597L16.1988 14.5621L16.1775 22.0183L17.7687 22.0531L19.3598 22.088L19.3811 14.6319L17.7899 14.597ZM17.7687 22.0531L17.7732 20.4616L16.6183 20.4363L16.6138 22.0278L16.6093 23.6193L17.7641 23.6446L17.7687 22.0531ZM16.6138 22.0278L18.2049 22.0627L18.2262 14.6066L16.6351 14.5717L15.0439 14.5368L15.0227 21.9929L16.6138 22.0278ZM17.2142 14.0068L17.2096 15.5983C16.6498 15.586 16.1972 15.1221 16.1988 14.5621L17.7899 14.597L19.3811 14.6319C19.3845 13.4339 18.4164 12.4415 17.2187 12.4153L17.2142 14.0068ZM17.2142 14.0068L17.2187 12.4153C16.021 12.389 15.0473 13.3389 15.0439 14.5368L16.6351 14.5717L18.2262 14.6066C18.2246 15.1666 17.7695 15.6106 17.2096 15.5983L17.2142 14.0068Z" fill="#202831" mask="url(#path-2-inside-1_5081_211)"/>
<mask id="path-4-inside-2_5081_211" fill="white">
<path d="M16.582 22.8164L16.6008 21.94L23.9758 21.9732C24.2179 21.9743 24.4099 22.1714 24.4047 22.4134V22.4134C24.3995 22.6554 24.1991 22.8507 23.957 22.8496L16.582 22.8164Z"/>
</mask>
<path d="M16.582 22.8164L14.9905 22.8092L14.9564 24.4004L16.548 24.4076L16.582 22.8164ZM16.6008 21.94L16.6349 20.3488L15.0434 20.3416L15.0093 21.9328L16.6008 21.94ZM16.582 22.8164L18.1735 22.8236L18.1923 21.9471L16.6008 21.94L15.0093 21.9328L14.9905 22.8092L16.582 22.8164ZM16.6008 21.94L16.5667 23.5311L23.9417 23.5644L23.9758 21.9732L24.0099 20.382L16.6349 20.3488L16.6008 21.94ZM24.4047 22.4134M23.957 22.8496L23.9911 21.2585L16.6161 21.2252L16.582 22.8164L16.548 24.4076L23.9229 24.4408L23.957 22.8496ZM24.4047 22.4134L22.8132 22.4062C22.8268 21.7695 23.3542 21.2556 23.9911 21.2585L23.957 22.8496L23.9229 24.4408C25.044 24.4459 25.9722 23.5414 25.9962 22.4206L24.4047 22.4134ZM23.9758 21.9732L23.9417 23.5644C23.3048 23.5615 22.7996 23.043 22.8132 22.4062L24.4047 22.4134L25.9962 22.4206C26.0202 21.2998 25.1309 20.3871 24.0099 20.382L23.9758 21.9732Z" fill="#202831" mask="url(#path-4-inside-2_5081_211)"/>
<rect x="-0.0268924" y="0.411401" width="0.577571" height="7.45614" rx="0.288785" transform="matrix(0.652282 0.757976 -0.745404 0.666613 6.28559 0.15754)" stroke="#202831" stroke-width="0.577571"/>
<rect x="0.0268924" y="0.411401" width="0.577571" height="7.45614" rx="0.288785" transform="matrix(-0.652282 0.757976 0.745404 0.666613 30.73 0.116772)" stroke="#202831" stroke-width="0.577571"/>
</svg>
