<svg preserveAspectRatio="none" width="100%" height="100%" overflow="visible" style="display: block;" viewBox="0 0 14.1918 21.7572" fill="none" xmlns="http://www.w3.org/2000/svg">
<path id="Ellipse 372" d="M13.1918 21.7572C13.7441 21.7572 14.1918 21.3095 14.1918 20.7572C14.1918 20.2049 13.7441 19.7572 13.1918 19.7572V20.7572V21.7572ZM13.8989 8.07107C14.2894 7.68054 14.2894 7.04738 13.8989 6.65685L7.53494 0.292893C7.14441 -0.097631 6.51125 -0.097631 6.12072 0.292893C5.7302 0.683418 5.7302 1.31658 6.12072 1.70711L11.7776 7.36396L6.12072 13.0208C5.7302 13.4113 5.7302 14.0445 6.12072 14.435C6.51125 14.8256 7.14441 14.8256 7.53494 14.435L13.8989 8.07107ZM13.1918 20.7572V19.7572C9.96056 19.7572 7.08472 19.0356 5.05232 17.9193C2.98363 16.783 2 15.3759 2 14.0606H1H0C0 16.4437 1.74559 18.3848 4.08946 19.6723C6.46963 20.9796 9.68969 21.7572 13.1918 21.7572V20.7572ZM1 14.0606H2C2 12.7453 2.98363 11.3381 5.05232 10.2018C7.08472 9.0855 9.96056 8.36396 13.1918 8.36396V7.36396V6.36396C9.68969 6.36396 6.46963 7.14151 4.08946 8.44887C1.74559 9.73629 0 11.6774 0 14.0606H1Z" fill="var(--stroke-0, #2254D4)"/>
</svg>
