<svg preserveAspectRatio="none" width="100%" height="100%" overflow="visible" style="display: block;" viewBox="0 0 13.6918 19.6662" fill="none" xmlns="http://www.w3.org/2000/svg">
<path id="Ellipse 354" d="M13.4721 14.6735C13.765 14.3806 13.765 13.9058 13.4721 13.6129L8.69915 8.83991C8.40626 8.54702 7.93138 8.54702 7.63849 8.83991C7.3456 9.1328 7.3456 9.60768 7.63849 9.90057L11.8811 14.1432L7.63849 18.3859C7.3456 18.6787 7.3456 19.1536 7.63849 19.4465C7.93138 19.7394 8.40626 19.7394 8.69915 19.4465L13.4721 14.6735ZM12.9418 1.5C13.356 1.5 13.6918 1.16421 13.6918 0.75C13.6918 0.335786 13.356 0 12.9418 0V0.75V1.5ZM12.9418 14.1432V13.3932C9.6767 13.3932 6.75783 12.6647 4.68196 11.5245C2.57888 10.3693 1.5 8.89539 1.5 7.4466H0.75H0C0 9.69625 1.65035 11.5707 3.95982 12.8392C6.29651 14.1227 9.47355 14.8932 12.9418 14.8932V14.1432ZM0.75 7.4466H1.5C1.5 5.99782 2.57888 4.52392 4.68196 3.36875C6.75783 2.22854 9.6767 1.5 12.9418 1.5V0.75V0C9.47355 0 6.29651 0.770547 3.95982 2.05403C1.65035 3.32256 0 5.19696 0 7.4466H0.75Z" fill="var(--stroke-0, #2254D4)"/>
</svg>
