<svg preserveAspectRatio="none" width="100%" height="100%" overflow="visible" style="display: block;" viewBox="0 0 13.6918 19.6662" fill="none" xmlns="http://www.w3.org/2000/svg">
<path id="Ellipse 353" d="M12.9418 19.6662C13.356 19.6662 13.6918 19.3304 13.6918 18.9162C13.6918 18.502 13.356 18.1662 12.9418 18.1662V18.9162V19.6662ZM13.4721 6.0533C13.765 5.76041 13.765 5.28553 13.4721 4.99264L8.69915 0.21967C8.40626 -0.0732236 7.93138 -0.0732236 7.63849 0.21967C7.3456 0.512563 7.3456 0.987437 7.63849 1.28033L11.8811 5.52297L7.63849 9.76561C7.3456 10.0585 7.3456 10.5334 7.63849 10.8263C7.93138 11.1192 8.40626 11.1192 8.69915 10.8263L13.4721 6.0533ZM12.9418 18.9162V18.1662C9.6767 18.1662 6.75783 17.4376 4.68196 16.2974C2.57888 15.1423 1.5 13.6684 1.5 12.2196H0.75H0C0 14.4692 1.65035 16.3436 3.95982 17.6122C6.29651 18.8956 9.47355 19.6662 12.9418 19.6662V18.9162ZM0.75 12.2196H1.5C1.5 10.7708 2.57888 9.29689 4.68196 8.14172C6.75783 7.00151 9.6767 6.27297 12.9418 6.27297V5.52297V4.77297C9.47355 4.77297 6.29651 5.54352 3.95982 6.827C1.65035 8.09553 0 9.96993 0 12.2196H0.75Z" fill="var(--stroke-0, #2254D4)"/>
</svg>
