<svg preserveAspectRatio="none" width="100%" height="100%" overflow="visible" style="display: block;" viewBox="0 0 10.0013 10" fill="none" xmlns="http://www.w3.org/2000/svg">
<g id="Group 4987">
<g id="gridicons:dropdown">
<path id="Vector" d="M3.37358 4.54191L5.32289 6.49123L7.27221 4.54191H3.37358Z" fill="var(--fill-0, black)"/>
</g>
<path id="Vector_2" d="M0 4.38596C0 6.30117 1.22807 7.92398 2.92398 8.52339V0.248538C1.22807 0.847953 0 2.47076 0 4.38596ZM8.77193 4.38596C8.77193 2.47076 7.55848 0.847953 5.84795 0.248538V8.52339C7.55848 7.92398 8.77193 6.30117 8.77193 4.38596Z" fill="var(--fill-0, #027C00)"/>
<path id="Vector_3" d="M2.92578 8.52339C3.379 8.68421 3.87607 8.77193 4.38777 8.77193C4.89947 8.77193 5.39654 8.68421 5.84976 8.52339V0.248538C5.39654 0.0877193 4.89947 0 4.38777 0C3.87607 0 3.379 0.0877193 2.92578 0.248538V8.52339Z" fill="var(--fill-0, #F9F9F9)"/>
</g>
</svg>
