<svg preserveAspectRatio="none" width="100%" height="100%" overflow="visible" style="display: block;" viewBox="0 0 19.5703 11.7991" fill="none" xmlns="http://www.w3.org/2000/svg">
<g id="Group 4984">
<path id="Vector 369" d="M1 2.35178C4.79451 2.35178 12.7045 3.24381 14.1727 4.71194C15.5259 6.0652 16.4281 7.30189 16.9332 8.42537C17.2154 8.99134 17.5499 9.54886 18.5703 10.799" stroke="var(--stroke-0, #C80808)" stroke-width="2" stroke-linecap="round"/>
<path id="Vector 370" d="M3.36719 8.7717C3.47869 8.7717 3.59019 8.7717 4.76267 8.7717C5.93515 8.7717 8.16523 8.7717 9.53707 8.54869C10.9089 8.32568 11.3549 7.87967 12.4903 7.08225" stroke="var(--stroke-0, #1CCA6C)" stroke-width="2" stroke-linecap="round"/>
<path id="Vector 371" d="M16.543 4.04124C16.543 3.92974 16.543 3.81823 16.6545 3.53778C16.766 3.25733 16.989 2.81132 17.2711 2.41429C17.5533 2.01727 17.8878 1.68275 18.2324 1.00022" stroke="var(--stroke-0, #1CCA6C)" stroke-width="2" stroke-linecap="round"/>
</g>
</svg>
