<svg preserveAspectRatio="none" width="100%" height="100%" overflow="visible" style="display: block;" viewBox="0 0 30 12" fill="none" xmlns="http://www.w3.org/2000/svg">
<g id="Group 4968">
<path id="Polygon 19" d="M1.1225 6.50385C1.66605 4.62095 4.33395 4.62095 4.8775 6.50385V6.50385C5.2382 7.75336 4.30053 9 3 9V9C1.69947 9 0.761799 7.75336 1.1225 6.50385V6.50385Z" fill="var(--fill-0, white)"/>
<path id="Polygon 20" d="M13.1225 6.50385C13.666 4.62095 16.334 4.62095 16.8775 6.50385V6.50385C17.2382 7.75336 16.3005 9 15 9V9C13.6995 9 12.7618 7.75336 13.1225 6.50385V6.50385Z" fill="var(--fill-0, white)"/>
<path id="Polygon 21" d="M25.1225 6.50385C25.666 4.62095 28.334 4.62095 28.8775 6.50385V6.50385C29.2382 7.75336 28.3005 9 27 9V9C25.6995 9 24.7618 7.75336 25.1225 6.50385V6.50385Z" fill="var(--fill-0, white)"/>
</g>
</svg>
