<svg preserveAspectRatio="none" width="100%" height="100%" overflow="visible" style="display: block;" viewBox="0 0 27.0219 27" fill="none" xmlns="http://www.w3.org/2000/svg">
<g id="Group 4941" filter="url(#filter0_d_0_45)">
<g id="Ellipse 294" filter="url(#filter1_d_0_45)">
<path d="M19.0001 9.50173C19.0001 13.0916 16.0899 16.0017 12.5001 16.0017C8.91023 16.0017 6.00008 13.0916 6.00008 9.50173C6.00008 5.91188 8.91023 3.00173 12.5001 3.00173C16.0899 3.00173 19.0001 5.91188 19.0001 9.50173Z" stroke="var(--stroke-0, white)" stroke-width="3" shape-rendering="crispEdges"/>
</g>
<g id="Group 4229">
<rect id="Rectangle 1233" x="12.0156" y="0.703532" width="1.50387" height="2.11112" fill="var(--fill-0, white)"/>
<path id="Ellipse 295" d="M13.5195 0.703708C13.5195 1.09236 13.1828 1.40742 12.7676 1.40742C12.3523 1.40742 12.0156 1.09236 12.0156 0.703708C12.0156 0.315061 12.3523 0 12.7676 0C13.1828 0 13.5195 0.315061 13.5195 0.703708Z" fill="var(--fill-0, white)"/>
</g>
<g id="Group 4230">
<rect id="Rectangle 1233_2" width="1.49395" height="1.93309" transform="matrix(0.947967 -0.318369 0.355235 0.934777 8.44134 1.62695)" fill="var(--fill-0, white)"/>
<path id="Ellipse 295_2" d="M9.86587 1.15334C9.99229 1.486 9.77774 1.86215 9.38667 1.99349C8.99559 2.12483 8.57608 1.96163 8.44966 1.62897C8.32324 1.2963 8.53779 0.920157 8.92886 0.788817C9.31994 0.657476 9.73945 0.820679 9.86587 1.15334Z" fill="var(--fill-0, white)"/>
</g>
<g id="Group 4231">
<rect id="Rectangle 1233_3" width="1.46194" height="2.02823" transform="matrix(0.746791 -0.665059 0.709814 0.704389 5.71038 3.74456)" fill="var(--fill-0, white)"/>
<path id="Ellipse 295_3" d="M6.81024 2.77382C7.07528 3.03682 7.04573 3.46769 6.74425 3.73618C6.44277 4.00466 5.98351 4.0091 5.71848 3.74609C5.45344 3.48308 5.48299 3.05222 5.78447 2.78373C6.08596 2.51525 6.54521 2.51081 6.81024 2.77382Z" fill="var(--fill-0, white)"/>
</g>
<g id="Group 4232">
<rect id="Rectangle 1233_4" width="1.49261" height="2.40128" transform="matrix(0.940643 0.339399 -0.377988 0.92581 15.6831 1.43215)" fill="var(--fill-0, white)"/>
<path id="Ellipse 295_4" d="M17.0909 1.93875C16.9238 2.34802 16.4741 2.56639 16.0864 2.4265C15.6986 2.28661 15.5198 1.84143 15.6869 1.43216C15.854 1.0229 16.3038 0.804524 16.6915 0.944415C17.0792 1.08431 17.258 1.52948 17.0909 1.93875Z" fill="var(--fill-0, white)"/>
<path id="Line 125" d="M13.6921 3.68921C14.3382 3.9224 15.2007 3.28195 15.6184 2.25876" stroke="var(--stroke-0, white)" stroke-width="1.5"/>
</g>
<g id="Group 4233">
<rect id="Rectangle 1233_5" width="1.4581" height="2.3216" transform="matrix(0.717816 0.696233 -0.739184 0.673504 18.2495 2.93049)" fill="var(--fill-0, white)"/>
<path id="Ellipse 295_5" d="M19.3001 3.94502C18.9841 4.23287 18.4937 4.23896 18.2047 3.95863C17.9157 3.67829 17.9375 3.21769 18.2534 2.92984C18.5693 2.64199 19.0598 2.63589 19.3488 2.91622C19.6378 3.19656 19.616 3.65716 19.3001 3.94502Z" fill="var(--fill-0, white)"/>
<path id="Line 125_2" d="M15.5514 4.07681C16.0331 4.54406 17.0639 4.33944 17.8537 3.61979" stroke="var(--stroke-0, white)" stroke-width="1.5"/>
</g>
<g id="Group 4234">
<rect id="Rectangle 1233_6" width="1.42415" height="2.42822" transform="matrix(0.353624 0.935387 -0.948464 0.316884 20.2972 5.53582)" fill="var(--fill-0, white)"/>
<path id="Ellipse 295_6" d="M20.8051 6.8666C20.3811 7.00826 19.9247 6.82488 19.7856 6.45702C19.6466 6.08917 19.8775 5.67613 20.3015 5.53447C20.7255 5.39282 21.1819 5.57619 21.321 5.94405C21.4601 6.31191 21.2291 6.72495 20.8051 6.8666Z" fill="var(--fill-0, white)"/>
<path id="Line 125_3" d="M17.2735 5.54517C17.5052 6.15828 18.5524 6.36821 19.6124 6.01406" stroke="var(--stroke-0, white)" stroke-width="1.5"/>
<path id="Line 126" d="M18.4621 8.65176C18.2302 8.03869 18.9016 7.25458 19.9616 6.90044" stroke="var(--stroke-0, white)" stroke-width="1.5"/>
</g>
<g id="Group 4235">
<rect id="Rectangle 1233_7" width="1.41378" height="2.56332" transform="matrix(-0.0143823 0.999897 -0.999919 -0.0127107 21.1681 8.49377)" fill="var(--fill-0, white)"/>
<path id="Ellipse 295_7" d="M21.1573 9.90775C20.6854 9.90175 20.3075 9.58043 20.3131 9.19007C20.3187 8.79971 20.7058 8.48812 21.1776 8.49412C21.6495 8.50011 22.0274 8.82143 22.0218 9.21179C22.0162 9.60215 21.6291 9.91374 21.1573 9.90775Z" fill="var(--fill-0, white)"/>
<path id="Line 125_4" d="M18.1827 7.51366C18.1733 8.16426 19.122 8.70384 20.3017 8.71884" stroke="var(--stroke-0, white)" stroke-width="1.5"/>
<path id="Line 126_2" d="M18.1366 10.8121C18.1459 10.1615 19.1098 9.64626 20.2894 9.66126" stroke="var(--stroke-0, white)" stroke-width="1.5"/>
</g>
<g id="Group 4236">
<rect id="Rectangle 1233_8" width="1.42577" height="2.49093" transform="matrix(-0.379852 0.925047 -0.940017 -0.341127 20.9324 11.838)" fill="var(--fill-0, white)"/>
<path id="Ellipse 295_8" d="M20.3885 13.1566C19.9574 13.0002 19.7292 12.5781 19.8788 12.2139C20.0283 11.8497 20.499 11.6813 20.9301 11.8377C21.3611 11.9942 21.5894 12.4162 21.4398 12.7804C21.2902 13.1446 20.8196 13.3131 20.3885 13.1566Z" fill="var(--fill-0, white)"/>
</g>
<g id="Group 4237">
<rect id="Rectangle 1233_9" width="1.45217" height="2.11916" transform="matrix(-0.670133 0.742241 -0.781671 -0.623691 19.5902 14.6093)" fill="var(--fill-0, white)"/>
<path id="Ellipse 295_9" d="M18.6041 15.6861C18.2992 15.4428 18.2698 15.0042 18.5385 14.7066C18.8073 14.4089 19.2723 14.3649 19.5773 14.6082C19.8822 14.8515 19.9116 15.2901 19.6428 15.5877C19.3741 15.8854 18.9091 15.9294 18.6041 15.6861Z" fill="var(--fill-0, white)"/>
<path id="Line 126_3" d="M16.0343 14.8635C16.4822 14.3674 17.4633 14.4584 18.2257 15.0667" stroke="var(--stroke-0, white)" stroke-width="1.5"/>
</g>
<g id="Group 4238">
<rect id="Rectangle 1233_10" width="1.49995" height="2.53573" transform="matrix(-0.877337 0.479875 -0.504786 -0.863245 17.0613 16.9149)" fill="var(--fill-0, white)"/>
<path id="Ellipse 295_10" d="M15.7406 17.6333C15.505 17.2304 15.6086 16.7425 15.9719 16.5438C16.3353 16.345 16.821 16.5106 17.0566 16.9135C17.2922 17.3165 17.1887 17.8043 16.8253 18.0031C16.4619 18.2018 15.9763 18.0363 15.7406 17.6333Z" fill="var(--fill-0, white)"/>
<path id="Line 125_5" d="M16.4501 13.8796C15.8445 14.2108 15.8311 15.2961 16.4202 16.3036" stroke="var(--stroke-0, white)" stroke-width="1.5"/>
<path id="Line 126_4" d="M13.374 15.5586C13.9796 15.2273 14.9482 15.7754 15.5373 16.7829" stroke="var(--stroke-0, white)" stroke-width="1.5"/>
</g>
<g id="Group 4240">
<rect id="Rectangle 1233_11" width="1.43262" height="2.07519" transform="matrix(0.474393 -0.880313 0.902841 0.429974 4.12497 6.41092)" fill="var(--fill-0, white)"/>
<path id="Ellipse 295_11" d="M4.80415 5.14954C5.14907 5.31381 5.27653 5.72929 5.08886 6.07755C4.90119 6.42581 4.46944 6.57496 4.12453 6.4107C3.77961 6.24644 3.65214 5.83095 3.83982 5.4827C4.02749 5.13444 4.45924 4.98528 4.80415 5.14954Z" fill="var(--fill-0, white)"/>
</g>
<g id="Group 4241">
<rect id="Rectangle 1233_12" x="3.6985" y="9.78125" width="1.41376" height="2.08667" transform="rotate(-90 3.6985 9.78125)" fill="var(--fill-0, white)"/>
<path id="Ellipse 295_12" d="M3.69556 8.36749C4.0797 8.36749 4.39112 8.68397 4.39112 9.07437C4.39112 9.46477 4.0797 9.78125 3.69556 9.78125C3.31141 9.78125 3 9.46477 3 9.07437C3 8.68397 3.31141 8.36749 3.69556 8.36749Z" fill="var(--fill-0, white)"/>
</g>
<g id="Group 4242">
<rect id="Rectangle 1233_13" width="1.42973" height="2.14661" transform="matrix(-0.34547 -0.93843 0.9536 -0.301077 4.26465 13.1293)" fill="var(--fill-0, white)"/>
<path id="Ellipse 295_13" d="M3.76682 11.7886C4.14366 11.6697 4.55972 11.8736 4.69611 12.2441C4.83251 12.6146 4.63759 13.0114 4.26074 13.1303C3.8839 13.2493 3.46784 13.0454 3.33144 12.6749C3.19505 12.3044 3.38997 11.9076 3.76682 11.7886Z" fill="var(--fill-0, white)"/>
</g>
<g id="Group 4243">
<rect id="Rectangle 1233_14" width="1.48649" height="2.24166" transform="matrix(-0.906161 -0.422933 0.466999 -0.884258 9.45838 17.8822)" fill="var(--fill-0, white)"/>
<path id="Ellipse 295_14" d="M8.11109 17.253C8.30381 16.8881 8.76157 16.733 9.13353 16.9066C9.5055 17.0802 9.6508 17.5168 9.45808 17.8817C9.26536 18.2466 8.80759 18.4017 8.43563 18.2281C8.06367 18.0545 7.91837 17.6179 8.11109 17.253Z" fill="var(--fill-0, white)"/>
</g>
<g id="Group 4244">
<rect id="Rectangle 1233_15" width="1.46146" height="2.63381" transform="matrix(-0.743195 -0.669075 0.713623 -0.70053 6.53687 15.9022)" fill="var(--fill-0, white)"/>
<path id="Ellipse 295_15" d="M5.45839 14.9228C5.80441 14.5832 6.32805 14.5267 6.62798 14.7967C6.92791 15.0667 6.89056 15.561 6.54454 15.9007C6.19853 16.2403 5.67488 16.2968 5.37495 16.0268C5.07502 15.7567 5.11238 15.2625 5.45839 14.9228Z" fill="var(--fill-0, white)"/>
<path id="Line 125_6" d="M9.47621 14.3966C8.97636 13.9465 7.86985 14.2701 7.0048 15.1193" stroke="var(--stroke-0, white)" stroke-width="1.5"/>
</g>
<g id="Group 4239">
<rect id="Rectangle 1233_16" x="13.5043" y="18.1114" width="1.50387" height="2.66666" transform="rotate(-180 13.5043 18.1114)" fill="var(--fill-0, white)"/>
<path id="Ellipse 295_16" d="M12.0004 18.1111C12.0004 17.6202 12.3371 17.2223 12.7524 17.2223C13.1677 17.2223 13.5043 17.6202 13.5043 18.1111C13.5043 18.6021 13.1677 19 12.7524 19C12.3371 19 12.0004 18.6021 12.0004 18.1111Z" fill="var(--fill-0, white)"/>
<path id="Line 125_7" d="M14.4997 15C13.8076 15 13.2465 15.9949 13.2465 17.2222" stroke="var(--stroke-0, white)" stroke-width="1.5"/>
</g>
</g>
<defs>
<filter id="filter0_d_0_45" x="0" y="0" width="27.0219" height="27" filterUnits="userSpaceOnUse" color-interpolation-filters="sRGB">
<feFlood flood-opacity="0" result="BackgroundImageFix"/>
<feColorMatrix in="SourceAlpha" type="matrix" values="0 0 0 0 0 0 0 0 0 0 0 0 0 0 0 0 0 0 127 0" result="hardAlpha"/>
<feOffset dx="1" dy="4"/>
<feGaussianBlur stdDeviation="2"/>
<feComposite in2="hardAlpha" operator="out"/>
<feColorMatrix type="matrix" values="0 0 0 0 0 0 0 0 0 0 0 0 0 0 0 0 0 0 0.25 0"/>
<feBlend mode="normal" in2="BackgroundImageFix" result="effect1_dropShadow_0_45"/>
<feBlend mode="normal" in="SourceGraphic" in2="effect1_dropShadow_0_45" result="shape"/>
</filter>
<filter id="filter1_d_0_45" x="0.500082" y="1.50173" width="24" height="24" filterUnits="userSpaceOnUse" color-interpolation-filters="sRGB">
<feFlood flood-opacity="0" result="BackgroundImageFix"/>
<feColorMatrix in="SourceAlpha" type="matrix" values="0 0 0 0 0 0 0 0 0 0 0 0 0 0 0 0 0 0 127 0" result="hardAlpha"/>
<feOffset dy="4"/>
<feGaussianBlur stdDeviation="2"/>
<feComposite in2="hardAlpha" operator="out"/>
<feColorMatrix type="matrix" values="0 0 0 0 0.737255 0 0 0 0 0.733333 0 0 0 0 0.733333 0 0 0 0.13 0"/>
<feBlend mode="normal" in2="BackgroundImageFix" result="effect1_dropShadow_0_45"/>
<feBlend mode="normal" in="SourceGraphic" in2="effect1_dropShadow_0_45" result="shape"/>
</filter>
</defs>
</svg>
