<svg preserveAspectRatio="none" width="100%" height="100%" overflow="visible" style="display: block;" viewBox="0 0 8.64538 13.5011" fill="none" xmlns="http://www.w3.org/2000/svg">
<g id="evaArrowIosBackOutline1">
<path id="evaArrowIosBackOutline2" d="M7.21091 13.501C7.02637 13.5015 6.84403 13.4697 6.67729 13.4079C6.51056 13.3462 6.36366 13.2561 6.2474 13.1442L0.281011 7.35859C0.099324 7.18605 0 6.96962 0 6.74628C0 6.52293 0.099324 6.3065 0.281011 6.13396L6.45739 0.348345C6.66707 0.151425 6.96837 0.0275889 7.29501 0.00408031C7.62165 -0.0194283 7.94687 0.0593158 8.19913 0.22299C8.4514 0.386663 8.61004 0.62186 8.64015 0.876838C8.67027 1.13182 8.56939 1.38569 8.35972 1.58261L2.83803 6.7511L8.17443 11.9196C8.32548 12.0611 8.42143 12.2335 8.45093 12.4163C8.48043 12.599 8.44224 12.7846 8.34088 12.9509C8.23952 13.1173 8.07923 13.2575 7.87898 13.355C7.67872 13.4525 7.44689 13.5031 7.21091 13.501Z" fill="var(--fill-0, white)"/>
</g>
</svg>
