<svg preserveAspectRatio="none" width="100%" height="100%" overflow="visible" style="display: block;" viewBox="0 0 19.1737 17" fill="none" xmlns="http://www.w3.org/2000/svg">
<path id="Vector" d="M5.7911 8.66988L2.10932 5.28897C0.659878 6.73993 0.110615 8.19352 0.10108 8.22329L0 8.5L0.100126 8.77671C0.121105 8.83538 2.30862 14.6296 9.58731 14.6296C10.4732 14.6296 11.2799 14.5403 12.0208 14.3905L9.40231 11.986C8.45949 11.9435 7.56758 11.5805 6.9001 10.9676C6.23262 10.3547 5.83732 9.53565 5.7911 8.66988ZM9.58731 2.3704C7.81841 2.3704 6.36897 2.72417 5.16078 3.24431L1.62776 0L0.279399 1.23818L17.4439 17L18.7922 15.7618L15.6473 12.8739C18.1629 11.1637 19.0602 8.81348 19.0735 8.77671L19.1737 8.5L19.0735 8.22329C19.0526 8.16462 16.866 2.3704 9.58731 2.3704ZM11.4048 8.97811C11.5832 8.38529 11.4315 7.71804 10.9357 7.26182C10.4398 6.8056 9.71223 6.66725 9.06665 6.831L7.62865 5.51051C8.21793 5.17774 8.89553 5.00022 9.58731 4.99737C11.6909 4.99737 13.4016 6.5683 13.4016 8.5C13.3988 9.13513 13.2051 9.75722 12.8419 10.2977L11.4048 8.97811Z" fill="var(--fill-0, #154BD6)"/>
</svg>
