<svg preserveAspectRatio="none" width="100%" height="100%" overflow="visible" style="display: block;" viewBox="0 0 7.58333 8.34946" fill="none" xmlns="http://www.w3.org/2000/svg">
<path id="Vector" d="M7.04167 4.77112H4.33333V7.75307C4.33333 8.08109 4.08958 8.34946 3.79167 8.34946C3.49375 8.34946 3.25 8.08109 3.25 7.75307V4.77112H0.541667C0.24375 4.77112 0 4.50275 0 4.17473C0 3.84672 0.24375 3.57834 0.541667 3.57834H3.25V0.59639C3.25 0.268376 3.49375 0 3.79167 0C4.08958 0 4.33333 0.268376 4.33333 0.59639V3.57834H7.04167C7.33958 3.57834 7.58333 3.84672 7.58333 4.17473C7.58333 4.50275 7.33958 4.77112 7.04167 4.77112Z" fill="var(--fill-0, white)"/>
</svg>
