<svg preserveAspectRatio="none" width="100%" height="100%" overflow="visible" style="display: block;" viewBox="0 0 14.4185 14" fill="none" xmlns="http://www.w3.org/2000/svg">
<path id="Vector" d="M13.3886 8H8.23913V13C8.23913 13.55 7.77568 14 7.20924 14C6.6428 14 6.17935 13.55 6.17935 13V8H1.02989C0.463451 8 0 7.55 0 7C0 6.45 0.463451 6 1.02989 6H6.17935V1C6.17935 0.45 6.6428 0 7.20924 0C7.77568 0 8.23913 0.45 8.23913 1V6H13.3886C13.955 6 14.4185 6.45 14.4185 7C14.4185 7.55 13.955 8 13.3886 8Z" fill="var(--fill-0, #2254D4)"/>
</svg>
