<svg preserveAspectRatio="none" width="100%" height="100%" overflow="visible" style="display: block;" viewBox="0 0 26.25 26.2499" fill="none" xmlns="http://www.w3.org/2000/svg">
<path id="Vector" d="M26.25 5.62491C26.25 4.63035 25.8549 3.67653 25.1516 2.97326C24.4484 2.27 23.4946 1.87491 22.5 1.87491H21.5625V0.963782C21.5625 0.459289 21.1746 0.0262816 20.6701 0.00108632C20.5434 -0.00502103 20.4167 0.0146708 20.2978 0.0589686C20.1788 0.103266 20.0701 0.171248 19.9783 0.258794C19.8864 0.34634 19.8132 0.451627 19.7633 0.568277C19.7133 0.684926 19.6875 0.810509 19.6875 0.937414V1.87491H6.5625V0.963782C6.5625 0.459289 6.17461 0.0262816 5.67012 0.00108632C5.54336 -0.00502103 5.41668 0.0146708 5.29776 0.0589686C5.17883 0.103266 5.07014 0.171248 4.97827 0.258794C4.88639 0.34634 4.81325 0.451627 4.76327 0.568277C4.71329 0.684926 4.68751 0.810509 4.6875 0.937414V1.87491H3.75C2.75544 1.87491 1.80161 2.27 1.09835 2.97326C0.395088 3.67653 0 4.63035 0 5.62491V6.32804C0 6.3902 0.0246931 6.44981 0.0686469 6.49377C0.112601 6.53772 0.172215 6.56241 0.234375 6.56241H26.0156C26.0778 6.56241 26.1374 6.53772 26.1814 6.49377C26.2253 6.44981 26.25 6.3902 26.25 6.32804V5.62491ZM0 22.4999C0 23.4945 0.395088 24.4483 1.09835 25.1516C1.80161 25.8548 2.75544 26.2499 3.75 26.2499H22.5C23.4946 26.2499 24.4484 25.8548 25.1516 25.1516C25.8549 24.4483 26.25 23.4945 26.25 22.4999V8.6132C26.25 8.56658 26.2315 8.52186 26.1985 8.4889C26.1655 8.45593 26.1208 8.43741 26.0742 8.43741H0.175781C0.129161 8.43741 0.0844506 8.45593 0.0514852 8.4889C0.0185198 8.52186 0 8.56658 0 8.6132V22.4999ZM20.1562 10.3124C20.4344 10.3124 20.7063 10.3949 20.9375 10.5494C21.1688 10.7039 21.349 10.9236 21.4555 11.1805C21.5619 11.4375 21.5897 11.7202 21.5355 11.993C21.4812 12.2658 21.3473 12.5164 21.1506 12.713C20.954 12.9097 20.7034 13.0436 20.4306 13.0979C20.1578 13.1522 19.8751 13.1243 19.6181 13.0179C19.3611 12.9114 19.1415 12.7312 18.987 12.4999C18.8325 12.2687 18.75 11.9968 18.75 11.7187C18.75 11.3457 18.8982 10.988 19.1619 10.7243C19.4256 10.4606 19.7833 10.3124 20.1562 10.3124ZM20.1562 14.9999C20.4344 14.9999 20.7063 15.0824 20.9375 15.2369C21.1688 15.3914 21.349 15.6111 21.4555 15.868C21.5619 16.125 21.5897 16.4077 21.5355 16.6805C21.4812 16.9533 21.3473 17.2039 21.1506 17.4005C20.954 17.5972 20.7034 17.7311 20.4306 17.7854C20.1578 17.8397 19.8751 17.8118 19.6181 17.7054C19.3611 17.5989 19.1415 17.4187 18.987 17.1874C18.8325 16.9562 18.75 16.6843 18.75 16.4062C18.75 16.0332 18.8982 15.6755 19.1619 15.4118C19.4256 15.1481 19.7833 14.9999 20.1562 14.9999ZM15.4688 10.3124C15.7469 10.3124 16.0188 10.3949 16.25 10.5494C16.4813 10.7039 16.6615 10.9236 16.768 11.1805C16.8744 11.4375 16.9022 11.7202 16.848 11.993C16.7937 12.2658 16.6598 12.5164 16.4631 12.713C16.2665 12.9097 16.0159 13.0436 15.7431 13.0979C15.4703 13.1522 15.1876 13.1243 14.9306 13.0179C14.6736 12.9114 14.454 12.7312 14.2995 12.4999C14.145 12.2687 14.0625 11.9968 14.0625 11.7187C14.0625 11.3457 14.2107 10.988 14.4744 10.7243C14.7381 10.4606 15.0958 10.3124 15.4688 10.3124ZM15.4688 14.9999C15.7469 14.9999 16.0188 15.0824 16.25 15.2369C16.4813 15.3914 16.6615 15.6111 16.768 15.868C16.8744 16.125 16.9022 16.4077 16.848 16.6805C16.7937 16.9533 16.6598 17.2039 16.4631 17.4005C16.2665 17.5972 16.0159 17.7311 15.7431 17.7854C15.4703 17.8397 15.1876 17.8118 14.9306 17.7054C14.6736 17.5989 14.454 17.4187 14.2995 17.1874C14.145 16.9562 14.0625 16.6843 14.0625 16.4062C14.0625 16.0332 14.2107 15.6755 14.4744 15.4118C14.7381 15.1481 15.0958 14.9999 15.4688 14.9999ZM15.4688 19.6874C15.7469 19.6874 16.0188 19.7699 16.25 19.9244C16.4813 20.0789 16.6615 20.2986 16.768 20.5555C16.8744 20.8125 16.9022 21.0952 16.848 21.368C16.7937 21.6408 16.6598 21.8914 16.4631 22.088C16.2665 22.2847 16.0159 22.4186 15.7431 22.4729C15.4703 22.5272 15.1876 22.4993 14.9306 22.3929C14.6736 22.2864 14.454 22.1062 14.2995 21.8749C14.145 21.6437 14.0625 21.3718 14.0625 21.0937C14.0625 20.7207 14.2107 20.363 14.4744 20.0993C14.7381 19.8356 15.0958 19.6874 15.4688 19.6874ZM10.7812 14.9999C11.0594 14.9999 11.3313 15.0824 11.5625 15.2369C11.7938 15.3914 11.974 15.6111 12.0805 15.868C12.1869 16.125 12.2147 16.4077 12.1605 16.6805C12.1062 16.9533 11.9723 17.2039 11.7756 17.4005C11.579 17.5972 11.3284 17.7311 11.0556 17.7854C10.7828 17.8397 10.5001 17.8118 10.2431 17.7054C9.98614 17.5989 9.76652 17.4187 9.612 17.1874C9.45747 16.9562 9.375 16.6843 9.375 16.4062C9.375 16.0332 9.52316 15.6755 9.78688 15.4118C10.0506 15.1481 10.4083 14.9999 10.7812 14.9999ZM10.7812 19.6874C11.0594 19.6874 11.3313 19.7699 11.5625 19.9244C11.7938 20.0789 11.974 20.2986 12.0805 20.5555C12.1869 20.8125 12.2147 21.0952 12.1605 21.368C12.1062 21.6408 11.9723 21.8914 11.7756 22.088C11.579 22.2847 11.3284 22.4186 11.0556 22.4729C10.7828 22.5272 10.5001 22.4993 10.2431 22.3929C9.98614 22.2864 9.76652 22.1062 9.612 21.8749C9.45747 21.6437 9.375 21.3718 9.375 21.0937C9.375 20.7207 9.52316 20.363 9.78688 20.0993C10.0506 19.8356 10.4083 19.6874 10.7812 19.6874ZM6.09375 14.9999C6.37188 14.9999 6.64376 15.0824 6.87502 15.2369C7.10628 15.3914 7.28652 15.6111 7.39296 15.868C7.49939 16.125 7.52724 16.4077 7.47298 16.6805C7.41872 16.9533 7.28479 17.2039 7.08812 17.4005C6.89145 17.5972 6.64088 17.7311 6.3681 17.7854C6.09531 17.8397 5.81256 17.8118 5.5556 17.7054C5.29864 17.5989 5.07902 17.4187 4.9245 17.1874C4.76998 16.9562 4.6875 16.6843 4.6875 16.4062C4.6875 16.0332 4.83566 15.6755 5.09938 15.4118C5.3631 15.1481 5.72079 14.9999 6.09375 14.9999ZM6.09375 19.6874C6.37188 19.6874 6.64376 19.7699 6.87502 19.9244C7.10628 20.0789 7.28652 20.2986 7.39296 20.5555C7.49939 20.8125 7.52724 21.0952 7.47298 21.368C7.41872 21.6408 7.28479 21.8914 7.08812 22.088C6.89145 22.2847 6.64088 22.4186 6.3681 22.4729C6.09531 22.5272 5.81256 22.4993 5.5556 22.3929C5.29864 22.2864 5.07902 22.1062 4.9245 21.8749C4.76998 21.6437 4.6875 21.3718 4.6875 21.0937C4.6875 20.7207 4.83566 20.363 5.09938 20.0993C5.3631 19.8356 5.72079 19.6874 6.09375 19.6874Z" fill="var(--fill-0, #2254D4)"/>
</svg>
