<svg preserveAspectRatio="none" width="100%" height="100%" overflow="visible" style="display: block;" viewBox="0 0 23 19.5" fill="none" xmlns="http://www.w3.org/2000/svg">
<path id="Vector" d="M11.5 10.95C12.5609 10.95 13.5783 10.5496 14.3284 9.83701C15.0786 9.12437 15.5 8.15782 15.5 7.15C15.5 6.14218 15.0786 5.17563 14.3284 4.46299C13.5783 3.75036 12.5609 3.35 11.5 3.35C10.4391 3.35 9.42172 3.75036 8.67157 4.46299C7.92143 5.17563 7.5 6.14218 7.5 7.15C7.5 8.15782 7.92143 9.12437 8.67157 9.83701C9.42172 10.5496 10.4391 10.95 11.5 10.95ZM11.5 10.95C9.9087 10.95 8.38258 11.5505 7.25736 12.6195C6.13214 13.6884 5.5 15.1383 5.5 16.65V19.5M11.5 10.95C13.0913 10.95 14.6174 11.5505 15.7426 12.6195C16.8679 13.6884 17.5 15.1383 17.5 16.65V19.5M12.5 3.35C12.904 1.7692 14.515 0.5 16.5 0.5C18.672 0.5 20.48 2.2005 20.5 4.3C20.48 6.3995 18.672 8.1 16.5 8.1M16.5 8.1H15.5M16.5 8.1C19.788 8.1 22.5 10.6517 22.5 13.8V15.7M10.5 3.35C10.096 1.7692 8.485 0.5 6.5 0.5C4.328 0.5 2.52 2.2005 2.5 4.3C2.52 6.3995 4.328 8.1 6.5 8.1M6.5 8.1H7.5M6.5 8.1C3.212 8.1 0.5 10.6517 0.5 13.8V15.7" stroke="var(--stroke-0, #2254D4)"/>
</svg>
